{
  "accessors": [
    {
      "bufferView": 0,
      "componentType": 5126,
      "count": 121,
      "type": "VEC3",
      "max": [
        5.0,
        1.1102230246251565E-16,
        5.0
      ],
      "min": [
        -5.0,
        -1.1102230246251565E-16,
        -5.0
      ]
    },
    {
      "bufferView": 1,
      "componentType": 5126,
      "count": 121,
      "type": "VEC3",
      "max": [
        0.0,
        1.0,
        0.0
      ],
      "min": [
        0.0,
        1.0,
        0.0
      ]
    },
    {
      "bufferView": 2,
      "componentType": 5126,
      "count": 121,
      "type": "VEC4",
      "max": [
        -1.0,
        0.0,
        0.0,
        -1.0
      ],
      "min": [
        -1.0,
        0.0,
        0.0,
        -1.0
      ]
    },
    {
      "bufferView": 3,
      "componentType": 5126,
      "count": 121,
      "type": "VEC2",
      "max": [
        1.0,
        1.0
      ],
      "min": [
        0.0,
        0.0
      ]
    },
    {
      "bufferView": 4,
      "componentType": 5125,
      "count": 600,
      "type": "SCALAR",
      "max": [
        120.0
      ],
      "min": [
        0.0
      ]
    }
  ],
  "asset": {
    "generator": "Plattar UnityGLTF (2019.4.15f1)",
    "version": "2.0"
  },
  "buffers": [
    {
      "uri": "Plane.bin",
      "byteLength": 8208
    }
  ],
  "bufferViews": [
    {
      "buffer": 0,
      "byteLength": 1452
    },
    {
      "buffer": 0,
      "byteOffset": 1452,
      "byteLength": 1452
    },
    {
      "buffer": 0,
      "byteOffset": 2904,
      "byteLength": 1936
    },
    {
      "buffer": 0,
      "byteOffset": 4840,
      "byteLength": 968
    },
    {
      "buffer": 0,
      "byteOffset": 5808,
      "byteLength": 2400
    }
  ],
  "images": [
    {
      "uri": "1.png",
      "name": "1"
    }
  ],
  "materials": [
    {
      "pbrMetallicRoughness": {
        "baseColorTexture": {
          "index": 0
        },
        "metallicFactor": 0.0
      },
      "alphaMode": "MASK",
      "name": "PostcardLayer01"
    }
  ],
  "meshes": [
    {
      "primitives": [
        {
          "attributes": {
            "POSITION": 0,
            "NORMAL": 1,
            "TANGENT": 2,
            "TEXCOORD_0": 3
          },
          "indices": 4,
          "material": 0
        }
      ],
      "name": "Plane"
    }
  ],
  "nodes": [
    {
      "mesh": 0,
      "rotation": [
        0.0,
        0.0,
        0.0,
        -1.0
      ],
      "scale": [
        2.048,
        1.103,
        1.0
      ],
      "name": "Plane"
    }
  ],
  "samplers": [
    {
      "minFilter": 9729,
      "WrapS": 33071,
      "WrapT": 33071
    }
  ],
  "scene": 0,
  "scenes": [
    {
      "nodes": [
        0
      ],
      "name": "Plane"
    }
  ],
  "textures": [
    {
      "sampler": 0,
      "source": 0,
      "name": "1"
    }
  ]
}